<?xml version="1.0" encoding="UTF-8" ?>
<!DOCTYPE svg PUBLIC "-//W3C//DTD SVG 1.1//EN" "http://www.w3.org/Graphics/SVG/1.1/DTD/svg11.dtd">
<svg viewBox="0 0 109 109" version="1.1" xmlns="http://www.w3.org/2000/svg">
  <g>
    <path fill="#ed8936" opacity="0.98" d=" M 50.40 0.00 L 58.61 0.00 C 68.61 1.87 78.77 4.72 86.93 11.07 C 99.04 19.41 106.20 33.34 109.00 47.50 L 109.00 61.57 C 105.60 77.15 97.60 93.20 82.83 100.74 C 76.67 104.77 69.74 107.44 62.57 109.00 L 44.40 109.00 C 32.20 106.34 20.68 100.02 12.44 90.58 C 6.74 83.00 3.28 74.12 0.00 65.32 L 0.00 44.52 C 2.47 35.00 7.25 26.11 13.61 18.60 C 23.12 8.16 36.55 2.05 50.40 0.00 M 50.95 25.96 C 47.70 33.81 51.76 44.91 60.92 46.43 C 63.87 40.57 68.62 34.46 66.67 27.39 C 64.40 21.00 54.38 20.22 50.95 25.96 M 29.84 30.73 C 27.71 34.78 23.24 39.88 26.32 44.67 C 29.95 49.56 36.47 52.68 42.60 51.67 C 46.23 51.08 46.27 46.58 45.35 43.82 C 43.73 36.57 37.39 31.06 29.84 30.73 M 77.28 36.28 C 72.28 40.54 72.49 47.65 72.63 53.62 C 78.75 53.40 85.68 51.40 88.21 45.13 C 91.11 39.15 82.57 32.21 77.28 36.28 M 51.82 53.82 C 44.30 59.96 39.74 70.55 41.75 80.17 C 43.81 86.36 51.00 87.62 56.64 87.41 C 58.81 84.72 61.01 82.05 63.19 79.35 C 67.13 79.43 71.20 79.99 75.06 79.00 C 81.77 75.60 82.91 65.73 77.25 60.76 C 70.49 54.80 60.68 51.38 51.82 53.82 M 24.84 57.40 C 19.56 57.88 16.25 63.07 18.94 68.03 C 21.11 73.40 27.78 72.18 32.37 71.43 C 35.66 70.88 39.64 67.37 37.14 63.91 C 33.95 60.64 29.56 57.75 24.84 57.40 Z" />
  </g>
</svg>