<?xml version="1.0" encoding="UTF-8" ?>
<!DOCTYPE svg PUBLIC "-//W3C//DTD SVG 1.1//EN" "http://www.w3.org/Graphics/SVG/1.1/DTD/svg11.dtd">
<svg width="240pt" height="122pt" viewBox="0 0 240 122" version="1.1" xmlns="http://www.w3.org/2000/svg">
  <g id="#050505fc">
    <path fill="#4a5568" opacity="1.00" d=" M 77.69 12.65 C 80.97 7.67 85.12 2.76 90.87 0.64 C 94.96 2.64 96.67 7.18 99.95 10.03 C 106.27 7.23 111.65 1.83 118.80 1.21 C 121.68 1.99 123.04 5.21 124.22 7.70 C 127.96 17.44 131.08 27.40 134.46 37.27 C 142.37 32.12 151.34 27.56 161.02 27.69 C 168.68 28.03 174.57 34.40 176.72 41.38 C 177.85 44.91 178.36 49.68 175.13 52.30 C 172.55 55.09 169.47 51.53 167.00 50.33 C 165.34 51.52 163.65 52.66 161.95 53.78 C 159.91 52.75 157.93 51.59 155.95 50.43 C 150.17 53.70 143.84 56.51 137.03 55.79 C 137.40 56.78 137.78 57.77 138.15 58.76 C 143.36 58.58 149.37 59.90 151.88 65.01 C 155.13 72.21 151.75 80.26 146.94 85.88 C 147.97 88.54 149.76 91.92 147.47 94.46 C 144.16 97.36 139.41 98.29 135.13 97.53 C 132.32 97.42 130.26 95.25 127.72 94.35 C 126.25 94.25 124.78 94.33 123.32 94.27 C 125.55 96.11 127.89 97.84 129.83 100.00 C 124.40 98.45 119.41 94.70 113.48 95.89 C 116.58 97.64 119.95 98.95 122.76 101.19 C 118.75 100.91 115.13 99.12 111.50 97.57 C 112.59 98.94 113.72 100.28 114.82 101.64 C 109.33 100.04 103.70 98.94 98.34 96.92 C 97.76 99.05 97.81 101.55 96.27 103.28 C 92.80 104.49 89.36 105.80 86.20 107.73 C 84.63 106.68 83.13 105.52 81.45 104.64 C 78.84 103.97 75.47 104.65 73.58 102.34 C 72.02 100.78 73.26 98.60 73.38 96.76 C 68.42 96.32 63.34 96.11 58.55 94.73 C 56.41 92.82 57.40 89.61 57.15 87.11 C 52.70 88.42 48.29 89.95 43.68 90.67 C 45.60 89.12 47.65 87.74 49.58 86.21 C 45.33 86.94 41.38 88.86 37.09 89.43 C 38.96 88.16 40.94 87.07 42.89 85.93 C 36.64 84.82 31.27 88.78 25.34 89.84 C 27.05 88.35 28.91 87.03 30.73 85.67 C 24.17 85.59 17.61 85.90 11.06 85.61 C 5.94 85.28 2.92 80.29 1.48 75.90 C 2.43 72.02 4.08 67.87 7.60 65.63 C 12.46 62.55 18.35 61.82 23.98 61.60 C 34.78 61.30 46.16 60.88 56.10 65.87 C 59.23 62.26 63.17 59.51 67.68 57.91 C 66.94 42.35 69.27 26.05 77.69 12.65 M 78.70 14.61 C 83.75 13.22 89.72 12.37 94.17 15.82 C 97.71 18.10 98.17 22.74 97.54 26.54 C 95.13 33.16 86.76 35.98 80.42 33.53 C 76.82 32.59 74.99 29.15 72.96 26.37 C 69.64 38.38 68.67 51.50 72.71 63.46 C 75.22 74.37 79.43 84.94 80.53 96.14 C 78.34 96.84 75.92 97.25 74.25 98.97 C 74.53 99.64 75.10 100.98 75.38 101.65 C 79.68 103.66 83.08 99.31 86.38 97.30 C 85.38 99.30 84.18 101.19 83.27 103.22 C 84.83 105.32 87.36 104.62 89.59 104.62 C 89.57 102.43 89.52 100.24 89.61 98.05 C 90.76 99.87 91.83 101.75 92.99 103.57 C 93.98 102.05 96.25 101.12 95.88 98.99 C 95.89 95.45 95.69 91.92 95.39 88.40 C 94.97 83.36 93.52 78.27 94.86 73.24 C 97.03 80.43 97.07 88.05 97.95 95.47 C 107.70 94.05 117.97 94.13 127.16 90.23 C 132.77 88.07 132.05 80.78 136.40 77.29 C 136.63 83.20 133.29 88.73 129.74 93.26 C 131.83 94.44 134.06 95.35 136.37 96.03 C 137.00 93.75 137.43 91.42 138.13 89.17 C 138.51 91.77 138.70 94.41 139.03 97.02 C 142.66 95.18 140.37 91.01 142.24 88.20 C 144.59 84.03 149.09 81.19 150.26 76.35 C 150.98 73.05 151.35 69.33 149.81 66.20 C 147.62 62.38 142.99 61.39 139.02 60.58 C 138.67 63.06 138.43 65.56 137.83 68.00 C 136.39 63.39 135.51 58.62 134.61 53.87 C 141.70 54.45 148.52 52.38 154.73 49.09 C 154.50 46.47 153.58 43.57 154.93 41.11 C 155.65 39.21 157.97 39.53 159.56 38.99 C 158.18 41.22 156.61 43.33 155.18 45.53 C 157.12 47.32 159.67 48.76 162.27 47.34 C 163.16 44.37 163.40 41.26 164.03 38.24 C 166.71 42.08 167.60 46.94 170.54 50.59 C 173.36 52.40 175.56 48.47 175.48 45.98 C 175.53 35.46 162.96 26.82 153.27 31.24 C 146.33 34.13 139.48 37.26 132.61 40.31 C 132.70 35.38 130.16 31.01 128.60 26.48 C 125.82 18.39 122.95 10.25 118.74 2.77 C 111.85 5.23 106.12 10.16 99.17 12.40 C 95.94 9.76 94.80 5.00 90.84 3.24 C 85.07 4.32 82.20 10.49 78.70 14.61 M 81.36 16.24 C 78.21 17.22 75.30 19.72 74.75 23.10 C 74.32 27.14 77.74 30.72 81.56 31.44 C 85.31 32.17 89.67 32.34 92.86 29.88 C 96.47 27.28 97.09 21.32 93.79 18.23 C 90.49 15.20 85.46 14.78 81.36 16.24 M 59.11 66.06 C 56.66 68.50 56.01 72.39 57.38 75.54 C 59.13 80.40 63.50 83.50 67.47 86.48 C 66.33 88.62 65.31 90.83 64.23 93.00 C 64.95 93.44 66.41 94.30 67.14 94.73 C 68.54 92.63 70.13 90.65 72.01 88.95 C 71.54 90.92 70.98 92.87 70.43 94.82 C 73.00 94.85 76.68 96.52 78.48 94.03 C 78.20 90.02 76.66 86.25 75.68 82.39 C 73.64 74.67 71.77 66.91 69.57 59.24 C 65.98 61.33 62.06 63.06 59.11 66.06 M 11.56 66.58 C 8.38 67.72 5.43 70.14 4.54 73.52 C 3.41 77.77 6.93 82.28 11.17 82.81 C 17.73 83.91 24.40 83.01 31.00 83.18 C 40.74 83.35 50.66 82.48 60.19 85.01 C 58.73 82.39 57.13 79.83 55.93 77.07 C 54.66 74.24 55.25 71.07 55.22 68.07 C 49.59 66.30 44.02 63.97 38.05 63.73 C 29.17 63.46 20.03 63.53 11.56 66.58 M 58.40 90.35 C 59.29 91.53 60.22 92.68 61.27 93.72 C 62.73 92.05 63.56 89.98 64.49 88.01 C 62.44 88.73 60.41 89.52 58.40 90.35 Z" />
    <path fill="#4a5568" opacity="1.00" d=" M 107.44 13.59 C 112.49 12.31 119.27 13.14 121.65 18.47 C 124.24 23.92 120.05 30.13 114.76 31.87 C 108.45 34.31 101.02 29.93 98.99 23.76 C 97.42 18.50 103.04 14.73 107.44 13.59 M 106.37 16.30 C 103.86 17.01 101.04 18.44 100.33 21.17 C 100.23 25.93 104.84 29.29 109.15 30.07 C 114.71 31.46 121.98 26.37 120.11 20.25 C 118.05 14.80 111.06 14.78 106.37 16.30 Z" />
    <path fill="#4a5568" opacity="1.00" d=" M 85.30 18.11 C 86.05 18.40 86.81 18.70 87.57 18.99 C 87.48 19.57 87.29 20.73 87.20 21.31 C 86.70 21.38 85.70 21.51 85.19 21.57 C 84.82 20.41 84.86 19.25 85.30 18.11 Z" />
    <path fill="#4a5568" opacity="1.00" d=" M 107.39 18.27 C 108.01 18.25 109.26 18.21 109.88 18.20 C 109.88 18.85 109.88 20.17 109.88 20.83 C 109.23 20.84 107.93 20.85 107.28 20.85 C 107.31 20.21 107.36 18.92 107.39 18.27 Z" />
    <path fill="#4a5568" opacity="1.00" d=" M 148.88 20.69 C 150.77 18.78 153.32 18.03 155.97 18.03 C 153.87 19.52 151.42 20.38 148.88 20.69 Z" />
    <path fill="#4a5568" opacity="1.00" d=" M 146.38 25.94 C 149.90 22.46 155.06 21.53 159.68 23.14 C 155.28 24.19 150.86 25.25 146.38 25.94 Z" />
    <path fill="#4a5568" opacity="1.00" d=" M 96.31 29.64 C 97.92 29.43 99.53 29.27 101.15 29.15 C 101.53 31.59 101.25 34.22 102.25 36.52 C 105.36 41.44 108.79 46.16 111.67 51.22 C 108.09 51.47 104.53 51.85 100.96 52.18 C 99.27 52.41 97.56 51.72 96.43 50.47 C 95.38 45.02 96.79 39.45 100.10 35.02 C 98.84 33.22 97.55 31.45 96.31 29.64 M 102.08 47.55 C 100.16 47.69 98.69 49.12 97.15 50.10 C 100.07 50.06 102.99 49.80 105.84 49.13 C 104.58 48.62 103.37 47.99 102.08 47.55 Z" />
    <path fill="#4a5568" opacity="1.00" d=" M 162.84 84.80 C 167.76 83.33 172.95 83.39 178.02 82.91 C 174.93 85.52 170.67 85.69 167.30 87.81 C 171.16 89.98 175.65 90.08 179.94 90.44 C 188.97 91.20 198.03 91.55 207.08 91.50 C 210.29 91.62 212.45 88.99 214.43 86.87 C 211.73 85.67 208.89 84.66 205.91 84.51 C 196.64 83.86 187.35 84.55 178.08 84.85 C 178.44 84.27 179.15 83.09 179.51 82.51 C 187.34 82.64 195.17 82.42 203.00 82.49 C 209.42 82.42 215.63 84.35 221.64 86.40 C 224.68 87.24 225.74 90.46 227.04 92.97 C 228.99 97.30 231.45 101.48 232.61 106.11 C 233.15 107.74 231.44 108.54 230.35 109.30 C 222.66 113.69 213.62 114.46 204.96 114.88 C 195.34 115.79 185.73 114.39 176.13 113.94 C 171.32 115.48 166.86 118.03 161.88 119.06 C 165.01 115.90 169.45 114.91 173.28 112.91 C 166.53 112.77 160.59 117.72 153.65 116.22 C 157.30 114.07 161.49 113.28 165.48 112.00 C 160.99 110.35 156.38 109.01 152.01 107.04 C 153.88 100.64 156.71 94.58 159.61 88.59 C 160.46 87.18 161.03 85.22 162.84 84.80 M 160.93 90.00 C 158.73 95.38 156.31 100.67 154.29 106.13 C 160.35 108.67 166.86 109.77 173.31 110.84 C 185.57 112.81 198.06 113.14 210.44 112.33 C 217.42 111.82 224.45 110.45 230.62 107.00 C 230.45 106.27 230.13 104.81 229.97 104.08 C 226.07 105.37 222.23 106.95 218.14 107.56 C 221.59 104.71 226.13 103.85 229.76 101.30 C 226.11 101.80 222.67 103.21 219.02 103.74 C 221.81 101.60 225.16 100.41 228.12 98.56 C 225.45 98.86 222.81 99.44 220.15 99.78 C 222.12 98.53 224.20 97.43 226.27 96.34 C 225.48 94.55 224.72 92.75 223.75 91.05 C 217.65 92.73 211.34 93.65 204.99 93.54 C 196.41 93.40 187.79 93.93 179.24 92.92 C 173.10 92.24 166.77 92.27 160.93 90.00 Z" />
    <path fill="#4a5568" opacity="1.00" d=" M 144.22 113.78 C 147.58 111.25 151.63 109.69 155.88 109.93 C 152.79 112.99 148.36 113.55 144.22 113.78 Z" />
    <path fill="#4a5568" opacity="1.00" d=" M 230.47 115.34 C 233.16 113.73 236.35 114.79 238.96 115.99 C 238.25 119.31 234.15 120.66 231.38 118.96 C 229.95 118.34 227.70 115.69 230.47 115.34 Z" />
    <path fill="#4a5568" opacity="1.00" d=" M 214.95 116.18 C 217.23 116.14 219.51 116.17 221.78 116.28 C 220.90 118.18 220.00 120.08 219.16 122.00 L 218.89 122.00 C 217.55 120.08 216.25 118.12 214.95 116.18 Z" />
  </g>
</svg>